# xmcd
#
# Track frame offsets:
#	182
#	1827
#	14920
#	35767
#	51260
#	66060
#	85727
#	101422
#	118520
#	134260
#	144597
#	157145
#	176175
#	190127
#	208790
#	221635
#	235897
#	251580
#	267555
#	284127
#	301242
#	317942
#	330842
#
# Disc length: 4562 seconds
#
# Revision: 3
# Processed by: cddbd v1.5.1PL0 Copyright (c) Steve Scherf et al.
# Submitted via: MusicManager 7.0.3.0 
#
DISCID=5f11d017
DTITLE=Various Artist - Collected Works - 15 Years of Stony Plain - Disc 1
DYEAR=1900
DGENRE=
TTITLE0=Walter Shakey Horton - Joe Chicago
TTITLE1=Barence Whitfield and The Savages - Dust On My Needle
TTITLE2=Bobby King and Terrance Evans - Where Do We Go From Here
TTITLE3=Downchild Blues Band - Been So Long
TTITLE4=King Biscuit Boy - Operator
TTITLE5=Long John Baldry - One Step Ahead
TTITLE6=Zachary Richard - File Gumbo
TTITLE7=Beausoleil - Bon Temp Roulet
TTITLE8=Sylvia Tyson - Pepre's Mill
TTITLE9=Jo-El Sonnier - Louisiana Blues
TTITLE10=The Meters - Jambalaya
TTITLE11=George Porter Jr. - Rough Spots
TTITLE12=Aaron Neville - Tell It Like It Is
TTITLE13=Solomon Burke - Don't Tell Me What A Man Won't Do
TTITLE14=Robert Cray - She's Gone
TTITLE15=Paul James - Lucky In Love
TTITLE16=John Hammond - Memphis Town
TTITLE17=Amos Garrett - Home In My Shoes
TTITLE18=Amos Garrett, Gene Taylor, Doug Sahm Band - Sure Is Good Thing
TTITLE19=Amos Garett, Gene Taylor, Doug Sahm Band - Talk To Me
TTITLE20=Big Miller - I Want To Please You Baby
TTITLE21=Ellen McIlwaine - In D Street (I Am Discrete)
TTITLE22=Spiny Norman's Whoopee Band - Rocky Granola
EXTD=
EXTT0=
EXTT1=
EXTT2=
EXTT3=
EXTT4=
EXTT5=
EXTT6=
EXTT7=
EXTT8=
EXTT9=
EXTT10=
EXTT11=
EXTT12=
EXTT13=
EXTT14=
EXTT15=
EXTT16=
EXTT17=
EXTT18=
EXTT19=
EXTT20=
EXTT21=
EXTT22=
PLAYORDER=
